<?xml version="1.0" encoding="UTF-8"?>
<svg version="1.0" viewBox="0 0 611.13 563.68" xmlns="http://www.w3.org/2000/svg">
 <g transform="translate(-41 157.34)">
  <path d="m455.04 401.26c-10.111-5.0014-24.164-15.637-27.101-20.511-0.82889-1.3755-2.3032-8.0141-3.2762-14.752-1.4967-10.365-1.386-13.93 0.71879-23.156 2.5676-11.254 3.98-14.426 9.5085-21.356 5.5417-6.9464 8.4265-12.915 7.4981-15.513-0.49064-1.3729-3.4502-4.0464-6.5769-5.9412-3.1266-1.8947-9.813-6.8986-14.859-11.12-13.784-11.532-32.555-22.218-35.85-20.41-0.73905 0.40567-4.6255 5.1645-8.6365 10.575-4.011 5.4107-8.027 10.532-8.9244 11.381-0.89739 0.84876-5.4158 5.9719-10.041 11.385-4.6251 5.4128-10.999 12.557-14.165 15.875-3.1655 3.3185-6.8814 7.9724-8.2575 10.342-1.3761 2.3695-6.3419 8.8911-11.035 14.492-11.005 13.135-15.931 19.324-22.693 28.516-3.0218 4.1077-7.105 8.9267-9.0737 10.709-1.9688 1.7823-3.5796 3.7682-3.5796 4.4132 0 3.1909-5.9155 0.31581-15.747-7.6537-5.989-4.8545-11.604-8.8388-12.478-8.8539-0.87404-0.01508-6.0614-3.7045-11.527-8.1986s-11.678-9.0104-13.804-10.036c-4.2385-2.0448-10.659-12.224-10.659-16.898 0-4.3857 7.0016-15.849 15.06-24.656 8.3396-9.1148 30.183-35.998 34.732-42.745 1.7372-2.5767 4.5385-6.0663 6.2252-7.7546 3.6342-3.6377 13.262-15.785 14.81-18.686 0.59788-1.1203 3.143-4.4811 5.6558-7.4685 6.2176-7.3919 23.677-29.884 32.073-41.319 3.7842-5.1537 10.837-14.558 15.672-20.898 4.8354-6.3405 8.7916-12.421 8.7916-13.513 0-1.2332-4.2998-3.378-11.351-5.662l-11.351-3.6768-5.5529-10.424c-5.7713-10.834-15.15-20.644-26.023-27.221-8.6869-5.2545-10.379-5.6088-15.753-3.2975-7.2856 3.1338-10.657 9.7165-17.905 34.96-9.1194 31.761-11.524 36.163-29.223 53.484-5.4103 5.2947-7.3712 6.2859-13.761 6.9557-10.693 1.121-23.559-0.70325-35.394-5.0182-13.707-4.9974-29.64-18.838-32.239-28.006-0.95748-3.377-1.7409-7.3473-1.7409-8.8227 0-2.7186 9.1162-11.844 14.569-14.584 2.9342-1.4743 2.9351-1.5627 0.06373-6.298-2.7699-4.568-2.786-5.0389-0.32959-9.6363 3.1192-5.8379 9.7932-10.305 16.933-11.334 6.605-0.95192 7.8354-3.5965 3.8824-8.345-2.2871-2.7474-2.8192-4.8191-2.0804-8.0999 1.1454-5.0862 8.4333-11.145 13.406-11.145 6.0437 0 7.3664-2.6467 3.8488-7.7014-4.3114-6.1956-2.7791-11.382 5.1416-17.403 3.4505-2.6231 7.0977-4.7693 8.1047-4.7693 1.0071 0 2.7114-0.94215 3.7875-2.0936 1.6225-1.7363 1.3935-2.7699-1.3417-6.0556-4.4281-5.3193-4.2002-6.7404 2.0532-12.804 2.9433-2.8538 5.3514-6.4696 5.3514-8.035 0-1.5655 1.4932-7.0482 3.3182-12.184l3.3182-9.3374-9.2046-7.6748c-21.026-17.532-40.261-33.092-44.32-35.854-5.708-3.8833-23.775-17.78-33.097-25.459-9.9252-8.1746-11.004-8.6044-19.387-7.7227-8.4991 0.89398-13.196-1.4302-28.694-14.198-5.2644-4.3372-13.349-10.419-17.965-13.514-7.6834-5.152-8.3938-6.0818-8.3938-10.986 0-7.5254-1.3978-9.2532-16.46-20.347-14.768-10.877-18.706-14.379-18.706-16.635 0-0.83213 3.1495-4.7105 6.9989-8.6187 8.4559-8.5849 13.865-9.483 19.117-3.1741 2.5264 3.0348 4.2071 3.8008 7.3686 3.3583 3.4907-0.48859 4.3661 0.09094 5.9264 3.9232 2.1181 5.2023 15.036 14.587 20.079 14.587 1.8422 0 5.3349 0.91182 7.7615 2.0263 4.002 1.838 5.0379 1.788 11.147-0.53758 14.555-5.5409 31.668-6.8051 37.175-2.7461 3.522 2.596 2.5091 6.4828-3.81 14.621-7.5784 9.7595-8.6392 12.943-5.5982 16.799 1.3153 1.6677 2.3914 4.6471 2.3914 6.6209 0 3.6529 9.9845 13.29 26.144 25.236 13.581 10.039 38.923 29.527 47.253 36.338 16.785 13.724 31.011 24.554 33.441 25.457 1.3657 0.50766 5.7825 0.96595 9.8152 1.0184 5.6542 0.073612 8.19 0.85735 11.081 3.4247 2.0618 1.8311 6.1587 4.345 9.1043 5.5864s5.3556 2.7954 5.3556 3.4533c0 0.65792 2.9325 2.4205 6.5167 3.9167 3.5842 1.4963 7.1964 4.0569 8.0271 5.6902 0.83071 1.6334 3.5745 3.5473 6.0973 4.2532 5.9269 1.6584 9.9383 4.8047 9.9383 7.795 0 1.3042 2.4081 3.6331 5.3514 5.1754s5.3514 3.3678 5.3514 4.0567c0 0.68892 2.4206 1.6559 5.3792 2.1488 4.0635 0.67703 6.312 2.2086 9.193 6.2617 2.37 3.3343 4.9726 5.3655 6.875 5.3655 1.7698 0 4.2514 1.7381 5.8824 4.1201 3.6888 5.387 13.447 12.742 20.262 15.27 2.9801 1.1059 9.8319 5.6441 15.226 10.085 5.3943 4.4409 13.592 10.695 18.217 13.897 4.6251 3.2024 13.684 10.183 20.132 15.512 12.795 10.577 16.04 13.075 25.99 20.008 7.814 5.4451 8.9738 6.3098 31.856 23.75 9.6707 7.3708 20.986 15.44 25.146 17.931 4.1595 2.4911 10.696 7.1686 14.525 10.394s11.734 9.6493 17.566 14.274c9.5116 7.5432 11.109 8.3252 15.509 7.5921 5.4062-0.90074 7.3338 0.21195 24.455 14.116 23.425 19.024 34.328 27.332 37.087 28.261 3.4416 1.1589 18.609 13.473 18.609 15.108 0 0.60116 1.3599 2.186 3.0219 3.5218s2.6082 3.0233 2.1025 3.75c-0.50565 0.72665-0.0713 3.6034 0.96522 6.3927 1.5958 4.2943 1.5018 5.7289-0.6128 9.3607-1.3736 2.359-3.0848 4.2892-3.8027 4.2892-1.688 0-12.044 9.0029-16.964 14.747-2.1023 2.4547-5.5688 6.1774-7.7033 8.2727s-5.5746 6.018-7.6448 8.7172-4.3323 4.9119-5.0269 4.917c-0.69456 0.00511-5.5038-2.8933-10.687-6.4408s-11.839-7.8951-14.791-9.6612c-2.9519-1.7661-7.524-5.2797-10.16-7.808-4.1947-4.023-5.7313-4.5969-12.308-4.5969-14.755 0-23.681 8.6383-28.063 27.158-0.97205 4.1077-2.355 9.9128-3.0733 12.9-0.71829 2.9874-1.7406 8.487-2.2717 12.221-1.7605 12.377-6.673 28.829-11.27 37.743-7.2038 13.969-19.434 19.966-40.661 19.939-9.4954-0.01197-11.859-0.58559-20.955-5.0846zm38.156-3.0334c0.21023-0.18716 1.1257-0.41666 2.0344-0.51001 0.90873-0.09336 2.5327-1.2391 3.6087-2.5461 1.0761-1.307 2.6208-2.3764 3.4327-2.3764 4.8544 0 14.241-17.684 14.241-26.829 0-2.3335 0.60178-4.573 1.3373-4.9767 1.1581-0.63568 2.1581-5.9277 3.7405-19.795 0.21306-1.8671 1.2756-6.0817 2.3612-9.3657s1.649-7.0738 1.2521-8.4218c-0.39691-1.348-0.17184-2.633 0.50019-2.8555 1.895-0.62749 2.4763-8.2551 0.67025-8.7958-1.5318-0.45856-5.181 5.876-7.5718 13.144-1.2001 3.6482-5.337 36.48-5.3041 42.095 0.01887 3.2214-1.7678 7.7214-4.8521 12.221-0.76789 1.1203-1.8004 3.1062-2.2946 4.4132-0.49413 1.307-1.7766 2.3764-2.85 2.3764-1.0733 0-2.3311 0.87854-2.7951 1.9523-1.1581 2.6804-10.522 5.025-22.418 5.613-11.676 0.57716-19.357-1.2559-20.671-4.9334-0.51731-1.4476-2.1353-2.6319-3.5955-2.6319-3.6248 0-11.073-7.4561-15.317-15.333-2.9081-5.3976-3.5055-8.7448-3.5055-19.64 0-10.585-0.34382-12.616-1.7722-10.467-1.0936 1.6451-1.7722 9.2841-1.7722 19.949 0 17.242 0.01051 17.292 4.3809 21.048 2.9347 2.5218 4.6172 3.2042 5.0966 2.0672 1.1416-2.7077 3.8191-1.9612 2.8357 0.7906-1.1148 3.1194 2.6605 6.2497 13.27 11.003 7.1138 3.1871 9.6616 3.5815 21.815 3.3769 7.5684-0.1274 13.933-0.38475 14.143-0.5719zm-202.45-24.227c2.3327-4.3623 6.2653-9.8995 8.7392-12.305 2.4738-2.4055 4.4979-4.947 4.4979-5.6477 0-2.383-2.6983-1.2849-5.2108 2.1207-3.1587 4.2815-5.0972 4.2922-7.2785 0.04021-1.3209-2.5747-1.2626-3.8451 0.25066-5.4645 1.0844-1.1604 1.5296-2.5025 0.98927-2.9824-0.54028-0.47985-0.98235-0.15955-0.98235 0.71177 0 0.87133-0.86005 1.6188-1.9112 1.6611-1.9328 0.07775-14.017 13.934-15.848 18.173-1.035 2.3953 7.5785 11.624 10.849 11.624 0.91504 0 3.5722-3.5691 5.9049-7.9314zm176.84 3.2588c0-0.32935-0.68803-0.97648-1.529-1.4381-0.84094-0.46158-1.529-0.19212-1.529 0.59881s0.68803 1.4381 1.529 1.4381c0.84093 0 1.529-0.26946 1.529-0.59881zm-3.0579-8.2276c0-1.1203-0.66644-2.0369-1.481-2.0369s-1.085 0.91659-0.60091 2.0369c0.48406 1.1203 1.1505 2.0369 1.481 2.0369 0.33049 0 0.6009-0.9166 0.6009-2.0369zm12.232-1.3579c0-1.1203-0.99144-2.0369-2.2032-2.0369-2.5544 0-4.2787 1.9381-2.8518 3.2054 1.8274 1.6229 5.055 0.87682 5.055-1.1685zm-199.97-10.184c0.66097 0 1.2018-0.91488 1.2018-2.0331 0-1.9272 11.085-16.557 16.037-21.165 1.2711-1.1829 2.3111-3.2342 2.3111-4.5585 0-1.5823 0.78623-2.1398 2.2934-1.6261 1.6569 0.56469 2.2934-0.14873 2.2934-2.5705 0-1.8437 0.86005-3.3686 1.9112-3.3887 1.0512-0.02008 3.6313-2.52 5.7336-5.5554s5.5425-7.2776 7.6448-9.4272c7.3941-7.5602 9.2274-10.056 8.5452-11.635-0.37879-0.87669 0.63973-1.9025 2.2634-2.2796 1.6237-0.37711 2.9521-1.628 2.9521-2.7797s1.6574-3.6824 3.6832-5.6237 6.326-7.1739 9.556-11.628 7.7539-10.077 10.053-12.496c2.2991-2.4186 4.1912-5.4668 4.2047-6.7738 0.01343-1.307 0.92406-2.3764 2.0236-2.3764 1.0996 0 3.2148-2.4471 4.7006-5.4379 1.4858-2.9909 4.0263-6.0677 5.6456-6.8373 1.6193-0.76968 2.9442-2.2291 2.9442-3.2432s1.0649-2.2067 2.3665-2.6503c1.7658-0.6018 2.169-2.1035 1.5884-5.9164-0.42795-2.8104-0.40302-4.0067 0.05537-2.6584 1.052 3.0943 4.568 2.1672 3.9144-1.0321-0.26991-1.3211 1.5687-4.0007 4.1487-6.0465 2.5484-2.0207 6.4269-6.0211 8.6189-8.8899 3.17-4.1487 3.5725-5.4768 1.9672-6.4911-1.4248-0.90017-1.0067-1.0782 1.4218-0.60556 2.6192 0.50981 3.4402 0.05772 3.4402-1.8944 0-1.4102 2.3798-4.7403 5.2883-7.4003 4.6738-4.2743 5.1077-5.2582 3.734-8.4672-0.85488-1.997-2.2868-4.4147-3.1821-5.3727-2.1094-2.2574-8.8982-2.2626-8.8982-0.00681 0 0.9543-1.3618 2.7706-3.0261 4.0363-1.7305 1.3159-2.6396 3.1959-2.1232 4.3909 0.65125 1.5072 0.21621 1.8557-1.5608 1.2501-1.8773-0.63981-2.4637 0.00288-2.4637 2.7004 0 1.947-0.57726 3.3873-1.2828 3.2006-1.8719-0.49537-9.42 7.8223-9.42 10.38 0 1.1992-0.68803 2.1803-1.529 2.1803s-1.5773 1.6804-1.6364 3.7343c-0.08605 2.9906-0.32878 3.2348-1.2187 1.2263-1.0343-2.3343-1.2586-2.3503-3.2394-0.23062-1.7139 1.8341-1.7768 3.1041-0.32286 6.525 1.1935 2.8082 1.2914 4.7041 0.28893 5.5944-1.0025 0.89031-1.5163 0.36147-1.5163-1.5606 0-4.3015-2.8491-5.0901-4.4954-1.2443-0.78748 1.8395-2.1623 3.7455-3.0551 4.2356s-1.6338 2.2298-1.6467 3.8662c-0.01501 1.9077-0.44469 2.3865-1.1975 1.3344-0.81141-1.1339-2.4573-0.21242-5.328 2.9828-2.2846 2.5429-4.1539 5.2672-4.1539 6.0539 0 0.78676-0.64167 1.4305-1.4259 1.4305s-1.9071 1.3464-2.4952 2.992c-0.58809 1.6456-2.0105 3.8279-3.161 4.8497-1.1504 1.0217-2.0917 2.7306-2.0917 3.7976 0 1.0669-1.032 1.9399-2.2934 1.9399s-2.2934 0.9166-2.2934 2.0369-0.86407 2.0369-1.9202 2.0369-3.4984 3.0553-5.4273 6.7896-4.161 6.7896-4.9602 6.7896c-0.79917 0-1.453 0.85122-1.453 1.8916 0 1.0404-1.0321 2.2433-2.2935 2.6732-1.2614 0.42989-2.2934 2.1248-2.2934 3.7664s-0.45273 2.5827-1.006 2.0913c-2.1586-1.9171-5.0702 2.1454-4.077 5.6884 0.86229 3.0759 0.67928 3.342-1.3022 1.8933-2.8369-2.0741-4.3176-0.92529-4.3176 3.35 0 1.82-0.67239 2.8795-1.529 2.4094-0.84093-0.46158-1.5323-0.34488-1.5363 0.25933-0.00403 0.60422-2.4494 3.4602-5.4343 6.3467-4.5082 4.3596-5.2842 5.9689-4.5835 9.5054 0.47434 2.3941 0.34319 3.239-0.2997 1.9306-1.6402-3.3382-5.3693-0.25823-9.3934 7.7583-0.7498 1.4937-4.1883 5.3386-7.6412 8.5441-3.4528 3.2056-6.2779 6.7192-6.2779 7.808s-1.032 1.9797-2.2934 1.9797c-1.286 0-2.2935 1.2118-2.2935 2.7584 0 1.5172-1.032 3.1102-2.2934 3.5401s-2.2935 1.4407-2.2935 2.2462-1.4896 2.8728-3.3102 4.594c-2.8177 2.6637-3.0501 3.6366-1.5618 6.5376 0.96168 1.8745 2.6887 3.4082 3.8378 3.4082s3.3289 1.2165 4.844 2.7034c2.7243 2.6736 2.8066 2.6435 7.4445-2.7158 2.5794-2.9806 5.2306-5.4192 5.8915-5.4192zm7.4384-27.95c0.07336-1.5819 0.43567-1.9037 0.92373-0.82041 0.44168 0.98025 0.38737 2.1514-0.12069 2.6027-0.50808 0.45122-0.86943-0.35081-0.80304-1.7823zm19.877-17.653c0.07335-1.5819 0.43566-1.9037 0.92373-0.82041 0.44167 0.98025 0.38737 2.1514-0.12069 2.6027-0.50808 0.45122-0.86943-0.3508-0.80304-1.7823zm47.468-58.447c-1.009-1.9668-1.484-3.8873-1.0556-4.2678 0.42843-0.3805 1.5055 1.0053 2.3935 3.0796 2.0974 4.8994 1.0454 5.8337-1.3378 1.1882zm-6.0656-1.8671c0-1.8671 0.34705-2.631 0.7712-1.6974 0.42415 0.93356 0.42415 2.4612 0 3.3948-0.42415 0.93356-0.7712 0.16974-0.7712-1.6974zm10.582-6.2238c0.07336-1.5819 0.43567-1.9036 0.92375-0.82041 0.44167 0.98025 0.38736 2.1514-0.1207 2.6027-0.50807 0.45122-0.86944-0.35081-0.80305-1.7823zm13.64-15.503c0-0.74685 0.68804-1.3579 1.529-1.3579s1.529 0.61106 1.529 1.3579-0.68804 1.3579-1.529 1.3579-1.529-0.61106-1.529-1.3579zm9.5285-17.653c0-2.614 0.31466-3.6833 0.69925-2.3763 0.38456 1.307 0.38456 3.4457 0 4.7527-0.38459 1.307-0.69925 0.23764-0.69925-2.3764zm16.464-25.8c0-0.74685 0.72864-1.3579 1.6192-1.3579s1.194 0.61107 0.67424 1.3579-1.2484 1.3579-1.6192 1.3579c-0.37084 0-0.67425-0.61106-0.67425-1.3579zm89.903 180.33c2.5157-2.2343 2.3283-4.4984-0.21713-2.6223-1.1285 0.83182-2.5046 1.1103-3.0579 0.61891-0.55332-0.49143-1.006 0.12494-1.006 1.3697 0 2.6621 1.7119 2.9155 4.2811 0.63369zm-25.557-11.02c-1.1919-1.0586-1.6584-0.5052-1.6584 1.9672 0 4.4774 2.1427 6.3924 2.8051 2.5071 0.28144-1.6508-0.23459-3.6642-1.1467-4.4742zm15.16 5.0744c0-0.21762-0.67606-1.9749-1.5024-3.9051-1.3318-3.111-1.8525-3.3152-4.5869-1.7986-4.6909 2.6018-3.886 5.7847 1.5058 5.9548 2.5209 0.07953 4.5834-0.03346 4.5834-0.25108zm10.703-4.1256c0-1.0332-0.63176-1.8786-1.4039-1.8786-0.77216 0-2.4922-0.3709-3.8224-0.82424-1.8028-0.6144-2.4185 0.02905-2.4185 2.5275 0 2.843 0.5802 3.2532 3.8224 2.7028 2.1023-0.35693 3.8224-1.4943 3.8224-2.5275zm8.5643-3.0018c-2.7106-2.4074-4.7953-1.3705-3.4597 1.7208 0.53814 1.2455 1.8811 1.7366 3.3654 1.2308 2.2334-0.76116 2.2424-1.0437 0.09428-2.9516zm-240.19-8.9908c4.6169-6.1775 5.2522-7.8579 3.8504-10.184-0.92341-1.5324-2.5147-2.7861-3.5363-2.7861-2.0614 0-2.2863-6.0632-0.36908-9.9513 0.91306-1.8517 0.05791-3.4288-3.3642-6.2048-4.4152-3.5815-4.7118-3.6334-7.8544-1.3733-1.7963 1.2918-3.2659 2.9398-3.2659 3.6622s-1.0401 2.0801-2.3112 3.017c-3.4861 2.5695-8.5616 13.667-7.5479 16.503 1.5995 4.4757 13.784 14.518 17.804 14.674 0.58575 0.02272 3.5532-3.2879 6.5943-7.3569zm204.1 5.2812c0-1.1644-0.68803-1.7394-1.529-1.2778s-1.529 1.4142-1.529 2.117c0 0.70277 0.68804 1.2778 1.529 1.2778s1.529-0.95265 1.529-2.117zm12.232-1.3909c0-2.5958-1.7814-3.1646-4.7517-1.5172-3.8978 2.1619-3.6408 2.9882 0.92932 2.9882 2.1023 0 3.8224-0.66198 3.8224-1.4711zm7.6448-1.9237c0-0.74685-0.68804-1.3579-1.529-1.3579s-1.529 0.61106-1.529 1.3579 0.68804 1.3579 1.529 1.3579 1.529-0.61107 1.529-1.3579zm13.761-1.438c0-0.70278-1.032-1.2778-2.2934-1.2778-2.3644 0-3.0376 1.6023-1.3157 3.1316 1.2215 1.0849 3.6092-0.14148 3.6092-1.8538zm11.237-0.55532c1.0783-2.4956-1.7884-4.2254-3.8979-2.352-1.632 1.4494-0.45817 4.3453 1.7614 4.3453 0.70134 0 1.6627-0.89702 2.1364-1.9934zm-36.318-7.2845c-2.2345-1.9845-2.4506-1.9424-2.5611 0.49997-0.06639 1.467-0.46774 1.9035-0.89189 0.96994-1.2355-2.7194-3.5743-1.958-3.5743 1.1637 0 1.8342 0.73572 2.6104 2.0499 2.1625 1.1274-0.38423 3.0195-0.16016 4.2046 0.49792 3.1582 1.7537 3.7951-2.6098 0.77276-5.294zm10.431 3.022c2.5413-0.86608 3.4359-7.3232 1.0146-7.3232-5.0455 0-8.2975 4.5104-5.2216 7.2422 1.241 1.1022 1.2124 1.1016 4.207 0.08104zm10.91-5.847c-0.56502-0.81192-2.0429-1.4762-3.2843-1.4762-1.8216 0-1.9243 0.55212-0.5326 2.8616 1.1724 1.9456 2.2237 2.4181 3.2843 1.4762 0.85793-0.76195 1.0976-2.0497 0.5326-2.8616zm12.914 1.4991c0-1.9971-4.3172-6.3834-5.366-5.4519-1.6669 1.4804 0.79101 6.5503 3.1756 6.5503 1.2047 0 2.1904-0.49426 2.1904-1.0984zm-35.166-6.29c0-1.0762-0.68804-2.3344-1.529-2.796-0.84093-0.46159-1.529 0.41894-1.529 1.9567s0.68804 2.796 1.529 2.796 1.529-0.88052 1.529-1.9567zm7.2624-2.9093c-1.457-1.294-4.3782 0.80198-3.2923 2.3624 0.64541 0.92746 1.5006 0.90403 2.5987-0.07119 0.9002-0.79949 1.2124-1.8305 0.69364-2.2912zm2.971-1.5582c-0.38765-1.3212-0.73033-0.56901-0.76148 1.6716-0.03117 2.2406 0.286 3.3215 0.70484 2.4022 0.41881-0.91934 0.44429-2.7525 0.05664-4.0737zm9.8648-1.2557c-2.062-1.361-2.1831-2.1434-0.67233-4.3428 1.483-2.159 1.4084-3.0029-0.38225-4.3227-1.2237-0.90198-2.225-1.1848-2.225-0.62848s-1.0321 0.25079-2.2934-0.67896c-1.9372-1.4279-2.2934-1.1497-2.2934 1.7905 0 1.9145 0.68803 3.8586 1.529 4.3202s1.529 2.2086 1.529 3.8823c0 4.5442 3.0954 6.7756 5.4434 3.9238 1.5325-1.8613 1.4151-2.5908-0.63482-3.9438zm12.775 0.87174c0-2.9107-4.4427-2.4903-5.0871 0.4814-0.39349 1.8147 0.22921 2.3678 2.2725 2.0183 1.548-0.26477 2.8145-1.3896 2.8145-2.4997zm9.9383-0.66035c0-1.1203-0.68803-2.0369-1.529-2.0369-0.84093 0-1.529 0.91659-1.529 2.0369s0.68804 2.0369 1.529 2.0369c0.84094 0 1.529-0.91659 1.529-2.0369zm-34.027-5.7503c0.79973-2.1308-2.2135-3.3872-5.7395-2.3933-4.7505 1.3391-3.8638 4.9392 1.0719 4.3522 2.2639-0.26926 4.3643-1.1508 4.6676-1.9589zm21.125-2.814c-0.53601-1.4999-1.9804-3.0699-3.2098-3.4888-2.7903-0.95094-3.108 4.6243-0.40048 7.0289 2.484 2.2061 4.8387-0.1027 3.6103-3.54zm10.991-2.4124c-1.457-1.294-4.3782 0.80198-3.2923 2.3624 0.6454 0.92746 1.5006 0.90403 2.5987-0.07119 0.90019-0.79949 1.2123-1.8305 0.69362-2.2912zm99.765 1.0182c0-0.62259 2.7522-3.7796 6.1159-7.0155 5.8186-5.5976 7.4-8.1475 5.0528-8.1475-0.5847 0-2.9598 1.6139-5.2781 3.5865-3.8831 3.3041-4.5859 3.4501-8.9243 1.8541-2.59-0.95282-5.062-1.419-5.4933-1.036-0.43124 0.383-2.6862-0.90964-5.0111-2.8725-9.8568-8.3222-16.828-13.753-17.652-13.753-1.8272 0-7.0339-4.7467-7.0339-6.4124 0-0.9543-1.1252-1.7351-2.5004-1.7351s-4.0888-1.3749-6.0302-3.0553c-7.7562-6.7136-9.4064-7.808-11.773-7.808-1.3552 0-3.3709-1.6804-4.4792-3.7343-1.1084-2.0538-2.8528-3.7343-3.8764-3.7343s-2.9455-1.3749-4.2708-3.0553-3.2922-3.0553-4.3709-3.0553-2.7137-1.4666-3.6333-3.2591c-0.9485-1.8488-2.8594-3.1709-4.4162-3.0553-1.938 0.1439-3.4141-1.4917-5.0244-5.5674-1.2541-3.1741-3.1272-5.7711-4.1625-5.7711-3.6306 0-4.6831-4.1448-2.2588-8.895 1.8035-3.5338 2.7982-4.2466 4.34-3.1101 1.5746 1.1606 2.0003 0.57929 2.0003-2.7308 0-3.299-0.98844-4.6591-4.5869-6.3117-2.5228-1.1586-4.5869-2.7212-4.5869-3.4723 0-0.75112-1.2041-1.7668-2.6757-2.257-1.4716-0.49022-5.4965-3.5264-8.9441-6.7469-6.9725-6.5134-6.5674-6.3589-11.926-4.5494-3.6955 1.2478-3.7771 1.5056-1.8271 5.7711 2.5826 5.6493 1.6906 8.7635-1.7814 6.219-1.897-1.3903-2.5268-1.4021-3.0366-0.05668-1.0402 2.7447-2.681 2.0669-12.328-5.0922-9.5261-7.0693-11.748-7.9368-13.04-5.0922-0.42415 0.93356-0.84739 0.16973-0.94053-1.6974-0.22738-4.5586-3.6412-8.5083-5.7415-6.6429-1.0976 0.97483-1.8925 0.33153-2.5752-2.0841-0.58472-2.0691-2.0668-3.4948-3.634-3.4957-1.4556-8.5e-4 -4.7107-1.8523-7.2335-4.1144-4.5168-4.0499-8.0698-7.0596-18.952-16.054-3.0302-2.5044-7.3186-5.3843-9.5298-6.3998s-4.4481-2.8364-4.9709-4.0464-1.8103-1.9417-2.861-1.626-3.4613-1.2832-5.3568-3.5532l-3.4464-4.1272 0.58316 4.0056c0.93071 6.393 2.6925 10.116 4.7869 10.116 1.0687 0 3.5288 1.769 5.4669 3.931s4.4237 3.6243 5.5235 3.2495c1.15-0.39194 1.9996 0.27249 1.9996 1.5638 0 1.2349 2.0659 3.2862 4.5908 4.5585 2.525 1.2723 4.9886 3.4081 5.4747 4.7463 0.5843 1.6084 1.8219 2.1687 3.6515 1.653 2.0785-0.58589 3.1701 0.24522 4.384 3.338 1.6055 4.0904 4.7909 5.6706 4.8799 2.4208 0.02556-0.93357 0.82844-0.47527 1.7842 1.0184 2.944 4.6012 12.962 12.9 15.573 12.9 1.3603 0 2.4733 0.84406 2.4733 1.8757 0 1.0316 2.3126 3.4422 5.139 5.3569 2.8265 1.9147 8.1587 5.9618 11.849 8.9936 9.3741 7.7004 10.788 8.7428 15.12 11.149 2.1023 1.1679 5.9524 3.8926 8.5556 6.0549 2.6033 2.1623 7.5589 5.6706 11.012 7.7962 3.4536 2.1256 7.4193 5.4099 8.8126 7.2986 1.812 2.4561 2.8678 2.9532 3.708 1.7458 0.81675-1.1737 2.0309-0.40072 3.9847 2.5367 1.5455 2.3236 3.6146 4.2248 4.598 4.2248 0.98338 0 2.915 1.5276 4.2925 3.3948s3.4965 3.3948 4.709 3.3948c1.2124 0 2.9632 1.2592 3.8907 2.7984 0.92746 1.5391 2.417 2.582 3.3102 2.3176 0.89316-0.26441 3.4935 1.0733 5.7785 2.9728 12.467 10.363 23.665 18.44 26.077 18.809 1.5049 0.22992 4.3456 2.5172 6.3128 5.0829 1.9671 2.5657 4.4025 4.669 5.4119 4.6741s2.3854 0.78776 3.0579 1.7393c0.67248 0.95149 2.9428 2.805 5.0451 4.1188 2.1023 1.3139 6.1603 3.8962 9.0177 5.7385 5.3887 3.4744 7.801 4.1602 7.801 2.2177zm-105.26-85.774c0-1.8671 0.34704-2.631 0.7712-1.6974 0.42415 0.93356 0.42415 2.4612 0 3.3948-0.42416 0.93356-0.7712 0.16974-0.7712-1.6974zm-13.051-2.4787c-0.67659-1.7367-0.8233-3.519-0.32605-3.9606 1.5849-1.4076 2.699 0.66798 2.1182 3.9463l-0.56199 3.1719-1.2301-3.1576zm5.2856-2.3872c0.07336-1.5819 0.43566-1.9037 0.92374-0.82041 0.44167 0.98025 0.38736 2.1514-0.12069 2.6027-0.50806 0.45122-0.86944-0.3508-0.80305-1.7823zm5.3575-1.7415c-0.65864-0.94647-0.7846-2.0876-0.27994-2.5358 1.3684-1.2153 2.8603 0.57209 2.1213 2.5413-0.5179 1.3799-0.87804 1.3788-1.8413-0.00549zm-13.002-3.6902c0.07335-1.5819 0.43566-1.9037 0.92374-0.82041 0.44167 0.98025 0.38736 2.1514-0.1207 2.6027-0.50807 0.45122-0.86943-0.35081-0.80304-1.7823zm10.307-3.9606c-0.53342-1.4937-1.4162-4.549-1.9617-6.7896-0.98946-4.0639-0.98585-4.0663 1.4866-1.0019 1.3632 1.6895 2.2459 4.7448 1.9617 6.7896-0.44485 3.2001-0.65181 3.3396-1.4866 1.0019zm-7.2492-5.5448c0.07336-1.5819 0.43566-1.9037 0.92374-0.82041 0.44167 0.98025 0.38736 2.1514-0.1207 2.6027s-0.86943-0.35081-0.80304-1.7823zm-77.443-38.488c0-1.4389 0.5406-2.3194 1.2013-1.9567 0.66073 0.36265 1.2013 1.5399 1.2013 2.6161s-0.5406 1.9567-1.2013 1.9567c-0.66074 0-1.2013-1.1773-1.2013-2.6161zm66.953 134.03l-3.3916-3.0122v2.9065c0 1.5986 0.4381 3.9205 0.97356 5.1598 0.88769 2.0545 1.1869 2.0638 3.3916 0.10567 2.2048-1.9581 2.1189-2.4132-0.97357-5.1597zm14.121 4.4826c1.0308-1.4813-2.1744-8.2492-3.9068-8.2492-2.4012 0-2.8975 2.5983-1.1478 6.0088 1.8656 3.6365 3.5603 4.3877 5.0546 2.2404zm45.028-10.664c1.3426-0.44642 3.2792-1.7661 4.3036-2.9327s1.8844-1.6412 1.9112-1.0548c0.02674 0.58641 1.5967 0.30845 3.4888-0.6177s4.6442-1.5203 6.1159-1.3203c1.5483 0.21039 2.6757-0.50087 2.6757-1.688 0-1.7009-0.84936-1.8086-4.9691-0.63014-8.4615 2.4205-14.907 5.2952-14.907 6.6485 0 0.7118-0.98569 1.2942-2.1904 1.2942s-2.6272 1.2221-3.161 2.7158-1.6122 2.7158-2.3965 2.7158c-0.78426 0-1.4259 1.1203-1.4259 2.4895 0 4.8533 2.2065 4.3394 5.1406-1.1972 1.6355-3.0862 4.072-5.9765 5.4146-6.4229zm-21.962 4.1815c-0.92563-3.2754-1.1939-3.3787-3.4873-1.3419-2.2933 2.0368-2.2601 2.4267 0.43217 5.0688 3.3 3.2386 4.5817 1.6751 3.0551-3.7269zm-11.528 2.3872c0-2.9864-2.3032-4.7285-4.591-3.4727-1.0195 0.55961-1.0015 1.7237 0.05379 3.4749 2.0421 3.3889 4.5372 3.3876 4.5372-0.00226zm-15.29-9.5054c0-1.6022-2.982-3.316-4.0772-2.3433s0.83456 3.6211 2.6385 3.6211c0.7913 0 1.4387-0.57499 1.4387-1.2778zm32.792-1.554c-0.49228-0.70743-1.5468-0.92851-2.3433-0.49129-0.79654 0.4372-1.0455 1.3737-0.55318 2.0812 0.49228 0.70743 1.5468 0.92851 2.3433 0.49129 0.79654-0.4372 1.0455-1.3737 0.55318-2.0812zm107.08 0.71107c2.9505-1.9806 2.8775-2.1589-2.7608-6.7464-3.1852-2.5916-6.6688-4.712-7.7413-4.712s-2.8706-1.5277-3.9957-3.3948c-2.2666-3.7613-4.5869-4.4752-4.5869-1.4113 0 1.0909 3.4244 3.9745 7.6097 6.4079 8.3586 4.8598 10.162 7.2848 7.5191 10.113-2.3043 2.4659 0.13644 2.3079 3.9559-0.25598zm-127.99-0.8497c-0.94501-2.5179-4.2365-2.9355-4.2365-0.5375 0 1.1825 1.0894 2.15 2.4209 2.15s2.1485-0.72564 1.8156-1.6125zm12.582-0.3442c0-1.0762-0.68803-2.3344-1.529-2.796-0.84093-0.46159-1.529 0.41894-1.529 1.9567s0.68804 2.796 1.529 2.796 1.529-0.88052 1.529-1.9567zm-49.186-9.468c2.6654-3.2962 4.8461-6.5995 4.8461-7.3406s-3.2141-3.2382-7.1425-5.5491c-6.2672-3.6868-8.4688-4.207-17.965-4.2449-11.862-0.04734-16.174-1.8288-16.174-6.6819 0-5.4532 5.6572-10.095 14.979-12.291 8.1278-1.9148 8.7254-2.3393 9.5584-6.7896 0.48869-2.6109 1.6852-6.0507 2.659-7.644 1.4926-2.4424 1.1976-3.4458-1.88-6.3952-3.8046-3.646-5.9244-4.2927-18.18-5.5467-6.3749-0.65228-7.7796-0.33819-10.236 2.2887-1.5658 1.6746-4.8537 5.1834-7.3065 7.7974-6.3128 6.7277-9.4706 12.723-9.4706 17.982 0 3.5692 1.3865 5.7121 6.4981 10.043 3.574 3.028 8.9062 6.7964 11.849 8.3743 2.9433 1.5779 10.856 7.1303 17.583 12.339 6.7274 5.2084 12.975 9.511 13.884 9.5613 0.90861 0.05033 3.8328-2.6054 6.4981-5.9016zm23.157-14.443c0.02039-1.9045 0.66386-4.0432 1.4299-4.7527 0.76605-0.70951 1.8658-5.901 2.4438-11.537 0.85719-8.3567 0.61872-10.565-1.2929-11.974-2.0517-1.5122-2.3373-0.9119-2.291 4.815 0.08228 10.165-0.95394 16.535-2.9829 18.337-1.0212 0.90697-1.8568 2.7704-1.8568 4.141 0 2.7633-3.5414 8.0277-8.7916 13.069-1.8921 1.8168-3.4134 4.2834-3.3806 5.4813 0.10281 3.7562 16.68-13.671 16.722-17.58zm12.269 16.363c0-0.74685-0.64743-1.3579-1.4387-1.3579s-1.864 0.61106-2.3837 1.3579c-0.51973 0.74685 0.1277 1.3579 1.4387 1.3579s2.3837-0.61106 2.3837-1.3579zm12.232-0.59881c0-1.0762-0.64051-2.3083-1.4233-2.738-1.8178-0.99777-3.646 1.545-2.3991 3.3368 1.406 2.0204 3.8224 1.6418 3.8224-0.59881zm10.861-1.1613c-1.9624-1.7429-3.9525-0.39583-2.4996 1.6919 0.56278 0.80872 1.7237 1.0859 2.5798 0.61603 1.0443-0.5732 1.0179-1.3327-0.08016-2.308zm10.544 1.7175c0-1.6256-4.3126-3.3694-5.5704-2.2524-1.3389 1.1891 0.93214 3.6529 3.3672 3.6529 1.2118 0 2.2032-0.63023 2.2032-1.4005zm108.5-1.5714c3.0774-2.9337 4.2684-7.8914 1.8958-7.8914-1.3334 0-12.07-8.1283-23.06-17.457-3.8322-3.2531-10.896-8.6554-15.696-12.005-4.8007-3.3497-9.1006-6.9514-9.5553-8.0038-0.45472-1.0524-1.8013-1.9135-2.9924-1.9135s-3.2926-1.5277-4.6701-3.3948c-2.9148-3.9508-5.4631-4.4177-5.5591-1.0184-0.0369 1.307-1.0055 0.03941-2.1524-2.8169-2.6097-6.4993-3.6892-7.4738-5.485-4.9518-1.3373 1.878-1.566 1.7402-2.0426-1.2304-0.10512-0.65513-3.9753-4.3151-8.6004-8.1333s-9.0974-7.5765-9.9383-8.3519c-4.3262-3.9888-9.34-7.7991-16.944-12.877-2.2368-1.4937-9.316-7.1407-15.732-12.549-13.173-11.104-16.598-12.701-19.551-9.1142-1.9239 2.3368-2.1257 2.335-5.0856-0.04405-3.0148-2.4231-3.0822-2.4005-3.0822 1.0309 0 3.7601 3.5241 7.776 6.8238 7.776 1.1102 0 2.4502 1.5276 2.9778 3.3948 0.58381 2.0659 2.049 3.3948 3.7428 3.3948 1.5309 0 3.5671 1.5276 4.525 3.3948 2.0305 3.958 4.3453 4.3994 5.3401 1.0184 0.59189-2.0116 0.7325-1.9594 0.91586 0.33948 0.25724 3.2249 14.663 16.196 16.728 15.062 0.78713-0.43205 1.8617 0.73788 2.3879 2.5998 0.57945 2.0504 2.0492 3.3854 3.7272 3.3854 1.5237 0 3.6994 1.5416 4.8349 3.4259 1.1354 1.8842 2.7998 3.2054 3.6985 2.9358 0.89875-0.26955 2.828 1.2441 4.2873 3.3637s3.599 3.8537 4.755 3.8537 3.3935 1.5276 4.9723 3.3948c1.5788 1.8671 3.6929 3.3948 4.698 3.3948 1.0052 0 2.2645 1.2228 2.7986 2.7173 0.53409 1.4945 2.2222 3.3119 3.7514 4.0388 3.5442 1.6846 9.1038 5.8257 18.731 13.952 4.2028 3.5476 8.2814 6.4501 9.0636 6.4501s1.8181 0.91659 2.3022 2.0369c0.48406 1.1203 2.1973 2.0369 3.8072 2.0369 1.6613 0 3.7029 1.5121 4.721 3.4966 0.98662 1.9231 3.724 4.3831 6.0831 5.4665s4.2892 2.5653 4.2892 3.2929c0 0.72768 0.86761 1.323 1.928 1.323s3.633 1.8332 5.7168 4.0737c4.514 4.8534 6.4929 5.0583 10.643 1.1019zm-76.268-60.284c0.07336-1.5819 0.43566-1.9037 0.92374-0.82041 0.44167 0.98025 0.38736 2.1514-0.1207 2.6027s-0.86943-0.3508-0.80304-1.7823zm-41.282-28.516c0.07335-1.5819 0.43566-1.9037 0.92373-0.82041 0.44168 0.98025 0.38737 2.1514-0.12069 2.6027-0.50807 0.45122-0.86943-0.35081-0.80304-1.7823zm80.915 77.594c0-2.1918-2.1655-3.8149-3.5038-2.6263-1.1932 1.0597 0.45081 4.583 2.1384 4.583 0.75096 0 1.3654-0.88053 1.3654-1.9567zm-9.7823-7.763c-1.6814-2.132-2.4494-2.4575-2.4494-1.0384 0 2.179 3.1663 5.6828 4.2587 4.7126 0.35207-0.31269-0.46211-1.9661-1.8093-3.6743zm-117.97-0.66103c1.2298-4.3517-0.63839-6.2983-5.4606-5.6897-4.3935 0.55448-5.4293 4.096-2.0703 7.0792 3.6142 3.2098 6.3751 2.7004 7.5309-1.3895zm110.86-4.6726c-0.93864-1.5577-2.0111-2.5617-2.3832-2.2312-1.0701 0.95039 1.0993 5.0633 2.6707 5.0633 0.78104 0 0.65177-1.2735-0.28747-2.8321zm-144.73-4.2969c2.2634-0.93357 4.1207-2.1239 4.1272-2.6452 0.01406-1.118-9.2716 1.4689-11.379 3.17-2.1983 1.7746 2.5012 1.4345 7.2516-0.5248zm137.16-0.80797c0-0.63111-1.3761-2.2535-3.0579-3.6052-3.3652-2.7048-3.9117-1.9172-1.4752 2.1261 1.5955 2.6477 4.5331 3.6062 4.5331 1.4791zm-126.14-2.9263c0.51973-0.74685 0.21633-1.3579-0.67423-1.3579-0.89057 0-1.6192 0.61106-1.6192 1.3579s0.30341 1.3579 0.67424 1.3579 1.0995-0.61106 1.6192-1.3579zm7.469-4.7049c2.7658-3.7489 3.1775-6.1584 1.0523-6.1584-1.1572 0-6.2278 7.3562-6.2278 9.0351 0 1.6582 3.1018-0.06581 5.1755-2.8767zm111.03 2.1554c0-1.7364-4.4957-4.7736-5.6062-3.7874-1.1105 0.98623 2.3093 4.979 4.2645 4.979 0.73796 0 1.3418-0.53624 1.3418-1.1917zm-9.1738-7.4895c0-1.0404-1.0321-2.2433-2.2934-2.6732-2.564-0.8738-2.6905-0.6499-1.3654 2.4169 1.1463 2.6529 3.6588 2.829 3.6588 0.25634zm-94.796-4.898c0-0.74686-0.68804-1.3579-1.529-1.3579-0.84093 0-1.529-0.91659-1.529-2.0369 0-1.1203-0.68804-2.0369-1.529-2.0369-2.2122 0-1.8826 5.0786 0.38224 5.8902 3.0907 1.1076 4.2047 0.9861 4.2047-0.45859zm85.552-2.8321c-0.93865-1.5577-2.0799-2.5006-2.5361-2.0954-1.2603 1.1193 0.75844 4.9276 2.612 4.9276 1.1308 0 1.1075-0.86834-0.07591-2.8321zm-9.1037-6.528c0-0.66695-1.032-1.5644-2.2934-1.9943-2.3306-0.79427-3.1313 0.65221-1.2741 2.3016 1.4612 1.2978 3.5676 1.1163 3.5676-0.30735zm-8.7308-6.9348c-0.43982-1.4937-1.4317-2.7158-2.2041-2.7158-0.77589 0-0.67201 1.2154 0.23213 2.7158 0.90011 1.4937 1.892 2.7158 2.2041 2.7158 0.31215 0 0.20771-1.2221-0.23211-2.7158zm-8.0878-6.0305c0-0.32935-0.68804-0.97648-1.529-1.4381-0.84093-0.46158-1.529-0.19212-1.529 0.59881s0.68803 1.4381 1.529 1.4381c0.84094 0 1.529-0.26947 1.529-0.59881zm-99.409-9.2034c0.01713-1.5123 0.83368-2.0586 2.3199-1.5521 1.5723 0.53585 2.2934-0.0811 2.2934-1.962 0-3.5697-11.33-11.081-15.318-10.155-1.6108 0.37409-3.3418 1.8363-3.8468 3.2494-0.50498 1.4131-1.5598 2.5692-2.3441 2.5692-1.9129 0-1.8277 5.0508 0.10304 6.1106 0.84093 0.46158 1.6088-0.57171 1.7063-2.2962 0.13013-2.3006 0.36356-2.5027 0.87661-0.7591 0.38457 1.307 1.3368 2.3763 2.1161 2.3763 0.77928 0 1.4169 1.2304 1.4169 2.7343 0 1.5038 0.81957 3.8998 1.8213 5.3243 1.7745 2.5236 1.9112 2.5144 5.325-0.3579 1.927-1.6214 3.5156-3.9981 3.5301-5.2817zm-7.4977-0.49524c0.07336-1.5819 0.43565-1.9037 0.92373-0.82041 0.44167 0.98025 0.38737 2.1514-0.12069 2.6027s-0.86943-0.35081-0.80304-1.7823zm100.79 4.8972c0-0.72964-1.8921-2.39-4.2046-3.6896-2.3126-1.2997-5.6879-3.6052-7.5008-5.1235s-4.3229-3.4902-5.5778-4.3821c-1.2549-0.89189-2.6016-2.4195-2.9926-3.3948-0.39105-0.97522-1.2123-1.3607-1.825-0.85656-1.8676 1.5367 1.2031 4.9591 10.72 11.948 9.2908 6.8228 11.381 7.8329 11.381 5.4989zm-293.68-15.797c2.7138-1.2024 5.3013-3.0356 5.7499-4.0737 0.44857-1.0382 1.774-1.8876 2.9454-1.8876s2.1299-0.77007 2.1299-1.7113 1.8921-3.516 4.2046-5.7217c8.7794-8.374 14.748-20.36 16.753-33.644 0.42282-2.8007 1.3152-5.0922 1.9832-5.0922 1.0855 0 2.4293-6.3876 3.4554-16.426 0.19822-1.939 1.3061-4.5376 2.462-5.7745 1.2842-1.3742 1.7576-3.7762 1.2173-6.1758-0.76551-3.3993-0.48298-3.8336 2.1031-3.233 1.8817 0.43703 2.9972 0.00698 3.0138-1.162 0.03952-2.7766 6.4807-7.6642 11.557-8.7691 2.4591-0.53533 4.9006-1.5547 5.4256-2.2654 1.0166-1.3763 8.5493 2.3363 11.426 5.6315 1.185 1.3572 1.9896 1.4737 2.7392 0.39651 1.3173-1.893-3.2969-8.3915-5.9583-8.3915-1.0747 0-2.35-0.91659-2.8341-2.0369-0.48404-1.1203-1.9337-2.0369-3.2215-2.0369s-2.3414 0.91659-2.3414 2.0369c0 1.9267-2.7161 2.6866-7.482 2.0935-1.1719-0.14585-2.5479 0.26111-3.058 0.90436-0.51 0.64324-2.869 2.4932-5.2422 4.111-6.0548 4.1276-14.797 14.623-14.797 17.765 0 1.4471-1.0321 3.3917-2.2935 4.3215-1.2614 0.92975-2.2934 3.409-2.2934 5.5095s-0.6839 5.4166-1.5198 7.3691c-0.93873 2.1928-1.0059 5.5812-0.17569 8.8628 0.95883 3.79 0.84663 5.2304-0.39145 5.0253-1.017-0.16846-1.9302 2.1018-2.2057 5.4837-0.25858 3.1741-1.1296 5.7711-1.9355 5.7711-0.80593 0-1.3181 1.7164-1.1381 3.8142 0.22956 2.6757-1.2465 5.409-4.9448 9.157-8.7823 8.8999-15.314 14.187-17.526 14.187-2.5018 0-7.068 5.3896-5.9397 7.0109 1.1228 1.6135 2.533 1.4315 8.1329-1.0496zm267.83-3.0177c-0.8246-1.3684-2.5689-3.2764-3.8762-4.24-3.3722-2.4855-3.2495 0.90516 0.15348 4.2448 3.2712 3.2102 5.6582 3.2071 3.7227-0.00475zm-301.34-0.75932c0-1.6717-11.857-7.0431-13.104-5.9361-1.2076 1.0725 2.1811 3.8059 7.0374 5.6767 6.5604 2.5272 6.0665 2.5061 6.0665 0.25936zm185.77-4.9863c2.5228-3.7534 6.1383-8.3595 8.0344-10.236 2.7777-2.7485 3.1296-3.9389 1.8112-6.1268-0.89999-1.4935-2.7954-3.099-4.212-3.5678-1.4166-0.46878-3.4747-1.9619-4.5736-3.3181-1.0988-1.3562-3.008-2.4658-4.2425-2.4658s-2.9463-1.6392-3.804-3.6427l-1.5594-3.6427-3.614 3.3033c-1.9877 1.8168-5.002 5.6537-6.6983 8.5264-1.6964 2.8727-6.1382 8.0877-9.8707 11.589-3.7325 3.5012-7.2924 7.7816-7.9108 9.512-1.0447 2.9233-0.79889 3.0827 3.4692 2.2502 2.772-0.54071 5.0084-0.29988 5.6397 0.60731 0.74575 1.0717 1.7499 0.99703 3.497-0.25997 1.863-1.3404 2.1738-1.354 1.2959-0.05635-1.7225 2.546 2.5369 3.4404 8.9244 1.874 4.4643-1.0947 5.7444-0.97884 6.4185 0.58105 1.3435 3.1095 2.5204 2.3254 7.3951-4.9272zm-0.64378-10.211c0.07336-1.5819 0.43566-1.9037 0.92374-0.82041 0.44167 0.98025 0.38737 2.1514-0.12069 2.6027-0.50808 0.45122-0.86943-0.3508-0.80305-1.7823zm106.91 8.4059c0-1.0404-1.0321-2.2433-2.2934-2.6732-2.564-0.8738-2.6905-0.64989-1.3654 2.4169 1.1463 2.6529 3.6588 2.829 3.6588 0.25635zm-309.83-4.219c-0.48406-1.1203-1.3902-2.0369-2.0136-2.0369s-2.3677-2.597-3.8762-5.7711c-3.4235-7.2033-3.4146-7.177-3.6458-10.815-0.17537-2.7592-0.39308-2.8274-2.6432-0.82907-3.5379 3.1421-1.4559 9.782 5.0826 16.21 5.51 5.4165 8.6569 6.8543 7.0961 3.2422zm300.65-2.0502c0-0.75415-1.434-2.4346-3.1867-3.7343s-4.6101-3.4324-6.3498-4.7394c-4.1783-3.139-4.4839-3.0103-2.417 1.0184 0.9579 1.8671 2.6574 3.3948 3.7767 3.3948s2.8944 1.2221 3.9448 2.7158c2.0407 2.9022 4.2321 3.5984 4.2321 1.3446zm-240.17-11.585c1.8697-1.6058 1.5681-2.0741-2.1419-3.3268-3.6037-1.2168-4.8487-1.0213-7.5274 1.1824-2.7063 2.2264-3.511 2.3471-5.1321 0.76972-1.0574-1.0289-3.1215-1.5038-4.5869-1.0555-2.1639 0.66203-2.0977 0.42386 0.35199-1.2679 2.716-1.8757 2.8046-2.4344 0.88959-5.6123-2.579-4.2798-2.0823-4.862 3.3567-3.9341 3.9371 0.67169 6.0361 3.1166 2.6757 3.1166-0.84093 0-1.529 0.91659-1.529 2.0369 0 1.2542 1.434 2.0369 3.7322 2.0369 4.9442 0 6.4453-2.4405 2.919-4.7461-2.6623-1.7407-2.6713-1.9038-0.15312-2.7708 3.8994-1.3425 7.2626 0.23216 7.2626 3.4005 0 2.9637 2.226 3.6947 3.9048 1.2822 0.56501-0.81194 0.27098-2.1479-0.65338-2.9689-1.2216-1.0849-1.0242-2.1369 0.72268-3.8512 2.212-2.1708 2.0797-2.5092-1.6623-4.2505-3.2291-1.5026-3.6493-2.1925-2.042-3.3529 1.113-0.80353 3.3998-1.6857 5.0816-1.9604 4.2876-0.70032 5.1464-6.5823 0.96106-6.5823-1.6907 0-3.5199 0.64073-4.0649 1.4239-1.2712 1.8267-5.3055-0.96756-5.3055-3.6748 0-1.4264 0.70563-1.583 2.7518-0.61041 3.2406 1.5403 12.538-2.982 12.538-6.0985 0-2.3376-1.8307-2.4503-4.292-0.26433-1.4416 1.2803-2.3333 1.206-4.0729-0.33948-3.0509-2.7104-0.54778-6.6405 2.7032-4.2443 2.7012 1.991 7.1907 0.69196 7.1907-2.0806 0-1.1103-1.3445-2.331-2.9877-2.7126-2.3796-0.55266-2.8085-1.4899-2.107-4.6047 1.0451-4.641-2.7192-6.718-7.4351-4.1023-4.1942 2.3263-9.2595 0.64727-8.072-2.6756 0.60554-1.6944 0.2066-2.6063-1.1402-2.6063-1.3569 0-2.1557 1.8739-2.3155 5.4316-0.13414 2.9874 0.40768 5.4317 1.2041 5.4317s1.448 1.2707 1.448 2.8237c0 2.4312-0.63779 2.6993-4.5882 1.9287-5.5969-1.0918-7.8154 2.1911-4.0066 5.9289 1.3634 1.338 2.4789 4.0533 2.4789 6.0342 0 2.7279 0.9457 3.8123 3.8987 4.4705 3.7144 0.82796 3.7618 0.95415 1.0034 2.6701-1.5924 0.99057-4.3788 1.4565-6.1921 1.0353-3.5166-0.81674-4.274-2.4682-1.7638-3.846 1.9815-1.0876-0.90565-6.1083-3.5126-6.1083-3.1897 0-6.1156 5.3505-4.1034 7.5038 1.233 1.3195 1.272 2.57 0.13427 4.3068-0.88178 1.3461-1.6242 1.9143-1.6497 1.2628-0.06399-1.631-4.6334 1.8662-4.6334 3.5461 0 0.74247 1.8485 1.0361 4.1078 0.65255 5.1001-0.86588 8.124 0.08809 8.124 2.563 0 2.3015-1.8287 2.4402-4.2163 0.31964-1.3406-1.1906-2.342-1.1503-4.1282 0.16627-1.9299 1.4225-2.3667 1.3997-2.4047-0.12545-0.03055-1.2248-0.59858-1.0207-1.6569 0.59517-2.1846 3.3355-0.61627 6.3676 3.2936 6.3676 3.0205 0 3.0585 0.13912 0.62716 2.2985-2.4314 2.1593-2.3846 2.4447 0.77189 4.7148 1.848 1.329 2.9228 3.0444 2.3886 3.8122-0.53424 0.76772-0.50218 2.0701 0.07125 2.8941 1.4251 2.0478 20.625 0.2217 23.484-2.2336zm-12.596-19.438c-2.6405-0.92458-2.6278-1.0905 0.26055-3.412 2.9296-2.3546 3.0939-2.3441 4.6867 0.29905 0.90785 1.5066 1.6506 3.0849 1.6506 3.5074 0 1.0087-3.1239 0.82194-6.5979-0.3945zm5.4511-20.105c-3.0679-1.0994-2.1994-4.5323 1.1467-4.5323 2.0386 0 3.0579 0.90528 3.0579 2.7158 0 2.7445-0.73235 3.0609-4.2047 1.8165zm7.5684-10.236c-1.8742-1.6645-2.5311-5.1601-0.96976-5.1601 2.8553 0 6.5443 3.0388 5.7948 4.7734-1.055 2.4417-2.3907 2.5487-4.8251 0.38666zm220.79 44.093c-1.5542-1.3803-2.8366 0.69782-1.5614 2.5303 0.9633 1.3843 1.3234 1.3854 1.8413 0.00549 0.3541-0.94347 0.22813-2.0846-0.27993-2.5358zm-250.15 1.8796c0-0.25768-1.3761-1.5745-3.0579-2.9263-2.968-2.3855-3.0579-2.3718-3.0579 0.4685 0 2.021 0.94601 2.9263 3.0579 2.9263 1.6819 0 3.0579-0.21082 3.0579-0.46849zm244.63-4.3268c0-1.1437-1.2041-2.4605-2.6757-2.9261-1.4716-0.46564-4.1621-2.4324-5.9788-4.3706s-3.8334-3.0568-4.4816-2.4859c-1.1353 1 9.6492 11.589 11.989 11.772 0.6307 0.04933 1.1467-0.84608 1.1467-1.9898zm-67.309-6.4075c-0.04238-3.8093-5.995-11.16-6.0478-7.4685-0.01871 1.307-0.70045 2.3764-1.515 2.3764-0.81453 0-1.1063-0.86723-0.6483-1.9272 0.45797-1.06-0.3273-3.4995-1.745-5.4212-1.458-1.9762-2.1369-4.5143-1.5629-5.8428 0.79895-1.8491 1.282-1.9649 2.2704-0.54446 2.0665 2.9696 3.3539-0.58771 1.6516-4.564-1.5178-3.5456-4.6007-3.6109-4.6007-0.09737 0 0.9963-1.032 2.1632-2.2934 2.5931-2.5677 0.87509-3.1327 7.0354-0.76448 8.3354 0.84093 0.46158 1.529 2.0689 1.529 3.5719 0 2.9328 3.3353 6.6124 5.9937 6.6124 0.89386 0 2.4846 1.2221 3.5349 2.7158 2.5188 3.582 4.2402 3.4428 4.1981-0.33948zm48.131-7.7142c0.48382-0.69526 0.1804-1.6479-0.67424-2.117-0.85465-0.4691-1.5539 0.09973-1.5539 1.2641 0 2.3852 0.91747 2.7364 2.2282 0.85294zm-72.561-2.1307c0-1.1203-0.87914-2.0369-1.9536-2.0369-1.0745 0-3.1879-1.2802-4.6964-2.8449s-3.1664-2.4686-3.6842-2.0087c-0.51784 0.45989 1.4235 2.6319 4.3141 4.8266 6.2109 4.7157 6.0202 4.6503 6.0202 2.0639zm65.746-4.6074c0-0.66695-1.0321-1.5644-2.2934-1.9943-1.397-0.47611-2.2934-0.00214-2.2934 1.2126 0 1.0968 1.032 1.9943 2.2934 1.9943s2.2934-0.54569 2.2934-1.2126zm-242.8-4.7399c4.8071-5.3507 4.1091-6.9614-1.8339-4.232-3.9746 1.8254-6.7841 6.4231-4.9308 8.0691 1.5604 1.3858 2.6042 0.79379 6.7646-3.8371zm162.49-0.78217c0.8642-1.2419-11.675-13.634-13.795-13.634-0.55808 0-2.9104-1.3749-5.2273-3.0553-6.2778-4.5531-10.312-6.8758-11.441-6.5878-0.55408 0.14128-2.287-1.1448-3.8509-2.858s-3.3317-2.6829-3.9285-2.155c-2.0879 1.8471 0.6088 4.7778 7.1858 7.8093 6.9393 3.1985 9.0749 4.6809 17.199 11.939 2.7169 2.4273 5.5856 4.4132 6.3747 4.4132s2.2942 1.2221 3.3446 2.7158c2.1467 3.0529 2.8344 3.2876 4.1391 1.4127zm71.135-1.4127c-0.9001-1.4937-2.9884-2.7158-4.6407-2.7158s-3.0041-0.84177-3.0041-1.8706c0-1.0288-1.0321-2.6313-2.2935-3.561-1.8995-1.4001-2.2958-1.2537-2.3072 0.85217-0.01463 2.6978 8.6057 9.913 11.917 9.9746 1.4923 0.02774 1.5713-0.6168 0.32846-2.6793zm-34.121-2.3763c0.52189-1.307 1.8548-3.3199 2.962-4.473 1.2938-1.3476 1.6184-3.4071 0.90852-5.7646l-1.1045-3.6679-4.0404 4.4972c-2.8974 3.2249-3.8185 5.528-3.2561 8.1409 0.89411 4.154 3.1284 4.779 4.5306 1.2674zm-33.153-5.691c0-0.70277-0.68804-1.6554-1.529-2.117-0.84094-0.46158-1.529-1.9639-1.529-3.3385 0-2.6098 8.2846-14.346 14.65-20.753 2.034-2.0474 3.6981-4.2287 3.6981-4.8473 0-1.1463 7.051-7.0462 8.421-7.0462 0.41406 0 0.75285 0.91659 0.75285 2.0369 0 1.8114 4.2703 2.7562 9.979 2.2079 0.86331-0.082915 2.8524 1.9646 4.4202 4.5501l2.8505 4.7009 3.4985-2.9905c3.639-3.1105 2.678-6.4315-1.8611-6.4315-1.1792 0-2.7981-1.5277-3.5974-3.3948s-2.3861-3.3948-3.5262-3.3948-2.9935-1.5277-4.1186-3.3948-2.8987-3.3948-3.9412-3.3948-5.5356 4.1247-9.9846 9.1659c-4.449 5.0413-10.013 10.999-12.364 13.24-2.3514 2.2406-4.2784 4.8376-4.2822 5.7711-0.0039 0.93356-0.69511 1.6974-1.536 1.6974-0.84094 0-1.529 1.4564-1.529 3.2364 0 2.0944-1.079 3.487-3.0579 3.9466-3.6984 0.85895-3.9145 3.9727-0.58863 8.4808 2.4843 3.3674 5.1755 4.4434 5.1755 2.0692zm50.823-3.1375c-0.92183-1.6793-2.0883-5.2857-2.5922-8.0143-0.50386-2.7286-1.9294-5.3064-3.168-5.7285-2.6874-0.91587-2.9889 2.1764-0.59902 6.1424 0.90907 1.5086 1.2258 3.1221 0.70385 3.5857-0.52196 0.46355-1.346-0.50537-1.8312-2.1532-0.92703-3.1484-5.1275-4.2197-5.0916-1.2986 0.05595 4.5482 2.0823 7.808 4.8536 7.808 1.6438 0 4.0536 0.94569 5.3551 2.1015 3.1277 2.7778 4.4736 1.3901 2.3694-2.4431zm-176.8-5.8801c-0.51045-1.1814-0.92808-2.4035-0.92808-2.7158 0-0.31233-1.032-0.56789-2.2934-0.56789-2.7647 0-2.9558 1.5844-0.4587 3.8022 2.6128 2.3204 4.7752 2.0158 3.6802-0.51844zm155.03-2.0861c0-0.74685-0.68804-0.98026-1.529-0.51868s-1.529 1.4503-1.529 2.1971 0.68804 0.98026 1.529 0.51868 1.529-1.4503 1.529-2.1971zm-123.08-2.5556c0-1.1203-1.5481-2.2321-3.4402-2.4708-2.6477-0.33397-3.4402 0.2352-3.4402 2.4708s0.79248 2.8048 3.4402 2.4708c1.8921-0.23865 3.4402-1.3505 3.4402-2.4708zm-54.089-4.7969c1.7931-3.4011 1.965-4.7085 0.61921-4.7085-2.9644 0-7.3828 5.1269-6.3929 7.4179 1.3909 3.2192 3.0614 2.4352 5.7737-2.7095zm201.43 1.3235c0.30835-1.4132 1.5499-3.2119 2.7589-3.997 1.2654-0.82178 1.7785-2.3991 1.2091-3.7171-0.90831-2.1022-1.2903-2.1143-4.6701-0.14747-2.7174 1.5813-3.6809 3.3747-3.6809 6.8517 0 5.0319 3.3377 5.801 4.383 1.0099zm-150.45-8.2681c-3.2056-2.0817-7.7766-2.4179-8.9987-0.66175-0.45001 0.64669-2.5432 0.88294-4.6516 0.52498-6.1266-1.0401-8.9194 0.45004-6.9545 3.7107 1.7602 2.9211 9.7461 3.8688 11.49 1.3635 0.60622-0.87116 2.1347-0.63868 4.1845 0.63641 2.9385 1.828 3.4334 1.7502 5.4949-0.8637 2.0416-2.5887 1.9859-3.0542-0.56407-4.7102zm9.9866 3.6367c0-1.8183-0.73345-2.4232-2.2934-1.8916-1.2614 0.4299-2.2935 1.6328-2.2935 2.6732s1.032 1.8916 2.2935 1.8916c1.2619 0 2.2934-1.2023 2.2934-2.6732zm-27.521-7.5111c0-1.1203-0.68804-2.0369-1.529-2.0369s-1.529 0.91659-1.529 2.0369 0.68804 2.0369 1.529 2.0369 1.529-0.91659 1.529-2.0369zm117.74-14.258c0.88622 0 1.9559-0.79749 2.377-1.7722 0.42728-0.98894 2.7111-1.6526 5.1674-1.5015 3.1616 0.19438 4.6109-0.43996 5.1443-2.2516 0.81927-2.7824-2.533-6.0447-4.8849-4.7537-0.81966 0.4499-1.8948 0.23678-2.3891-0.4736-0.49437-0.71039-2.6684 0.1649-4.8312 1.9451s-3.5148 3.8369-3.0043 4.5704c0.51046 0.73354 0.22884 1.7175-0.6258 2.1866-0.85465 0.4691-1.5539-0.15065-1.5539-1.3772 0-1.2266-0.86005-1.9732-1.9112-1.659-1.0907 0.32591-1.6933 2.1696-1.4037 4.2942 0.47273 3.468 0.27393 3.6121-2.9018 2.1026-3.2526-1.546-3.3655-1.4261-2.4569 2.6085 0.72156 3.2042 0.40586 4.229-1.3029 4.229-1.31 0-2.2552 1.2627-2.2552 3.0127 0 2.5661 1.1283 1.9621 7.6105-4.0737 4.1858-3.8975 8.3356-7.0865 9.2218-7.0865zm-65.759 9.6395c0-1.104-6.8059-5.4361-14.05-8.9431-1.5228-0.73724-2.7688-1.9651-2.7688-2.7287 0-0.76353-1.3761-2.1515-3.0579-3.0843-4.4682-2.4783-3.7347 0.25545 1.1467 4.2738 5.3462 4.4009 16.082 11.491 17.583 11.613 0.6307 0.051139 1.1467-0.45771 1.1467-1.1308zm-70.332-10.551c0-1.2482 1.1425-3.3906 2.5389-4.761 3.5087-3.4433 1.4403-4.6813-3.2557-1.9486-3.6704 2.1359-5.0708 6.1021-2.8508 8.0738 1.826 1.6217 3.5676 0.95574 3.5676-1.3641zm111.61-5.3594c0-1.1203-0.68804-1.6592-1.529-1.1976-0.84093 0.46158-1.529 1.7558-1.529 2.8761s0.68804 1.6592 1.529 1.1976c0.84094-0.46158 1.529-1.7558 1.529-2.8761zm-65.769-0.1792c-0.05387-2.343-2.822-4.6901-4.4668-3.7873-1.3443 0.73788-1.3404 1.4381 0.01627 2.8898 1.9181 2.0526 4.489 2.5711 4.4505 0.89754zm70.356-3.2216c0-2.2998 0.42732-2.5671 2.1149-1.3233 1.6369 1.2065 2.328 1.0656 3.0579-0.62374 2.2949-5.3114-0.29472-6.2928-5.1728-1.9605-3.227 2.866-4.1106 6.7896-1.529 6.7896 0.84093 0 1.529-1.2969 1.529-2.8821zm-77.977-2.2474c0-1.7512-4.6578-7.0917-6.1851-7.0917-1.94 0-7.1204-3.7334-13.66-9.8449-2.9971-2.8007-6.2943-5.0922-7.327-5.0922-3.5798 0-1.7673 3.4113 3.6075 6.7896 2.9706 1.8671 8.628 6.2519 12.572 9.7438 6.6322 5.8721 10.993 8.0522 10.993 5.4954zm42.824-2.6785c0.00728-1.307 2.4154-4.627 5.3514-7.3779 2.936-2.7508 5.3924-6.1117 5.4588-7.4685 0.06976-1.4258 0.44618-1.7506 0.89189-0.7696 1.1444 2.5187 2.9989 2.085 7.2577-1.6974 2.1023-1.8671 4.9362-3.3948 6.2975-3.3948 1.5342 0 2.2792-0.90335 1.9598-2.3763-0.37324-1.7213-1.9847-2.3763-5.8458-2.3763-3.4489 0-5.1955 0.59914-4.9482 1.6974 0.21023 0.93357-0.71153 1.6974-2.0484 1.6974-2.6682 0-8.1405 5.1523-8.2213 7.7405-0.02799 0.89645-0.92743 2.1186-1.9988 2.7158-5.1289 2.8592-9.6612 13.986-5.6969 13.986 0.84093 0 1.5349-1.0694 1.5422-2.3763zm19.863-0.39901c0-1.8899 0.85363-2.6481 2.6757-2.3763 2.0893 0.31156 2.5792-0.41945 2.2356-3.3353-0.24207-2.0538 0.27396-3.7343 1.1467-3.7343 0.87276 0 1.5868 0.91659 1.5868 2.0369 0 1.9702 3.2049 2.8116 4.9171 1.291 1.2204-1.0838-2.3472-7.388-4.1526-7.338-0.84093 0.023302-3.7651 2.7426-6.4981 6.0429-4.9384 5.9635-6.365 10.188-3.4402 10.188 0.84094 0 1.529-1.2489 1.529-2.7754zm33.853-1.8724c3.1138-3.4152 2.3419-4.8576-2.5996-4.8576-2.8214 0-3.7322 0.7261-3.7322 2.9754 0 2.8277-0.10223 2.8512-2.0601 0.47325-2.5287-3.0714-4.1583-1.1376-2.4405 2.896 1.5255 3.5821 6.8809 2.8469 10.832-1.487zm-10.919-12.316c0-2.7992-3.5546-4.3946-7.6448-3.4311-2.9094 0.68531-3.7221 1.6738-3.4023 4.1382 0.23105 1.7808 1.2068 3.6696 2.1682 4.1974 2.1451 1.1774 8.8789-2.5421 8.8789-4.9045zm-54.36-3.0654c1.0517-2.8104 10.703-9.0695 16.135-10.464 11.884-3.0507 15.142-6.4083 9.9397-10.243-3.351-2.47-9.9802 0.35735-16.149 6.8876-2.7706 2.9329-5.9471 5.3326-7.0589 5.3326-1.1117 0-2.0214 0.91659-2.0214 2.0369s-1.032 2.0369-2.2934 2.0369c-1.427 0-2.2935 1.2825-2.2935 3.3948 0 3.8929 2.419 4.5514 3.7411 1.0184zm-15.973-8.432c0-2.4605 8.3077-8.1406 17.79-12.163 7.9495-3.3724 9.3583-4.4812 8.6689-6.8226-0.47017-1.5968-2.0811-2.7957-3.7566-2.7957-3.9224 0-10.471 3.9192-10.471 6.2668 0 1.0344-0.76305 1.8807-1.6957 1.8807-2.3488 0-8.9484 5.7379-8.9806 7.808-0.01455 0.93356-1.0585 1.6974-2.3199 1.6974-1.2741 0-2.2934 1.207-2.2934 2.7158 0 1.4937 0.68804 2.7158 1.529 2.7158 0.84093 0 1.529-0.58633 1.529-1.303zm-9.892-14.42c4.1349-3.4198 7.7655-5.5585 8.068-4.7527 1.0816 2.8818 3.3552 1.3967 3.4737-2.2691 0.06639-2.0538 0.46774-2.9704 0.89189-2.0369 1.0582 2.3292 4.3987 2.1291 7.2875-0.43647 3.4184-3.036 2.9722-5.7459-1.0375-6.3007-4.0525-0.56072-9.6913 2.1373-14.613 6.9918-1.9401 1.9138-5.8703 5.6924-8.7338 8.3968-2.8634 2.7044-4.7736 5.3015-4.2448 5.7711 1.2758 1.1331 0.45231 1.629 8.9075-5.3639zm-20.104 1.3947c0.52213-1.2084 0.26581-1.7535-0.6009-1.2778-0.8313 0.45629-1.5115 1.4046-1.5115 2.1074 0 1.9533 1.0959 1.5228 2.1124-0.82963zm5.5325-8.1145c0-1.0619 0.9317-1.5966 2.0925-1.201 1.2762 0.43493 2.4455-0.48566 2.9973-2.3597 0.49762-1.69 1.361-2.6676 1.9186-2.1724 0.5576 0.49523 3.23-0.60081 5.9386-2.4356 2.7086-1.8348 5.9903-3.3361 7.2925-3.3361 2.5813 0 4.7523-3.5738 3.3742-5.5542-2.5448-3.657-19.027 1.7252-19.027 6.2132 0 1.1313-0.55563 2.0568-1.2347 2.0568-1.1714 0-6.4101 9.3166-6.4101 11.4 0 0.53997 0.68803 0.60411 1.529 0.14253 0.84094-0.46158 1.529-1.7006 1.529-2.7533zm-6.1159-14.14c0-0.70277-0.68803-1.6554-1.529-2.117s-1.529 0.11341-1.529 1.2778c0 1.1644 0.68804 2.117 1.529 2.117s1.529-0.57499 1.529-1.2778zm-5.5792-4.8706c-0.49301-1.141-2.2745-2.7296-3.9589-3.5303-1.6844-0.80061-2.7416-0.9364-2.3493-0.30176 0.39228 0.63465 1.1418 2.2233 1.6655 3.5303 0.52375 1.307 1.9843 2.3763 3.2457 2.3763 1.429 0 1.9556-0.78197 1.3971-2.0746zm-11.158-8.5384c-1.0486-0.31042-4.2479-2.3902-7.1097-4.6218-3.7163-2.8979-5.2032-3.4613-5.2032-1.9714 0 1.1473 1.2672 2.4432 2.8161 2.8798 1.5488 0.4366 4.4594 2.3473 6.4678 4.246 2.4251 2.2926 3.8673 2.8777 4.2936 1.7419 0.35304-0.94063-0.21603-1.9642-1.2646-2.2746zm-6.197-17.903c0-0.74685-0.72865-1.3579-1.6192-1.3579s-1.194 0.61106-0.67425 1.3579c0.51973 0.74685 1.2484 1.3579 1.6192 1.3579s0.67425-0.61106 0.67425-1.3579zm-5.3514-4.0737c-0.51972-0.74685-1.633-1.3579-2.4739-1.3579s-1.1038 0.61106-0.58402 1.3579c0.51972 0.74685 1.633 1.3579 2.4739 1.3579s1.1038-0.61106 0.58402-1.3579zm-8.4093-5.2212c0-0.6311-1.3761-2.2535-3.0579-3.6052-3.3652-2.7048-3.9117-1.9172-1.4752 2.1261 1.5955 2.6477 4.5331 3.6062 4.5331 1.4791zm-21.406-4.9154c0-1.094-1.3761-2.6432-3.0579-3.4426-2.3482-1.1161-3.0579-1.0327-3.0579 0.3596 0 1.9959 2.9674 5.072 4.8927 5.072 0.67274 0 1.2232-0.8951 1.2232-1.9891zm13.761-1.9184c0-1.7364-4.4958-4.7736-5.6062-3.7874-1.1105 0.98624 2.3093 4.979 4.2645 4.979 0.73797 0 1.3418-0.53624 1.3418-1.1916zm-22.935-5.5178c0-1.6021-2.982-3.316-4.0772-2.3433s0.83456 3.6211 2.6385 3.6211c0.79131 0 1.4387-0.575 1.4387-1.2778zm11.627-5.144c-1.5542-1.3803-2.8366 0.69782-1.5614 2.5303 0.96329 1.3843 1.3234 1.3854 1.8413 0.005486 0.3541-0.94346 0.22814-2.0846-0.27992-2.5358zm-19.271 0.40819c0-1.1954-4.867-4.8497-6.459-4.8497-0.90954 0-0.06708 1.2221 1.8721 2.7158 3.5402 2.7269 4.5869 3.2138 4.5869 2.1339zm10.703-6.2076c0-0.74685-0.68804-1.3579-1.529-1.3579s-1.529 0.61106-1.529 1.3579 0.68804 1.3579 1.529 1.3579 1.529-0.61106 1.529-1.3579zm-19.877-0.59881c0-0.32935-0.68803-0.97648-1.529-1.4381s-1.529-0.19212-1.529 0.59881 0.68804 1.4381 1.529 1.4381 1.529-0.26946 1.529-0.59881zm12.232-4.8328c0-0.74685-0.68803-1.3579-1.529-1.3579s-1.529 0.61106-1.529 1.3579c0 0.74685 0.68804 1.3579 1.529 1.3579s1.529-0.61106 1.529-1.3579zm-43.729-7.9573c-2.4378-1.771-2.9098-3.0563-1.9599-5.3368 1.4206-3.4106 0.20565-7.4469-1.8946-6.2941-0.7665 0.42075-0.99783 1.3338-0.51402 2.0291 1.7413 2.5023-6.5352 1.2018-9.2391-1.4517-3.3124-3.2507-5.3514-3.4853-5.3514-0.6158 0 1.155 2.0598 3.141 4.5772 4.4132 2.5175 1.2723 4.5816 2.8279 4.5869 3.4569 0.0191 2.262 5.4326 7.2089 7.2878 6.6597 1.0426-0.30865 1.8957 0.223 1.8957 1.1815 0 1.4093 0.36558 1.4125 1.9112 0.016771 1.5328-1.3841 1.2754-2.1878-1.2998-4.0587zm35.829 2.7822c-0.28031-0.60574-3.4338-3.4266-7.0078-6.2686-4.6036-3.6608-6.4981-4.5274-6.4981-2.9724 0 1.2072 0.68274 2.1949 1.5172 2.1949s3.3563 1.8332 5.6041 4.0737c3.7811 3.7688 7.5693 5.5325 6.3846 2.9724zm-18.093-14.435c0-0.32935-0.68804-0.97648-1.529-1.4381s-1.529-0.19212-1.529 0.59881 0.68804 1.4381 1.529 1.4381 1.529-0.26946 1.529-0.59881zm-40.08-3.74c-2.4549-3.2837-5.7893-4.8163-5.7893-2.6609 0 1.8034 4.3621 5.6418 6.4116 5.6418 0.93335 0 0.67266-1.2488-0.62232-2.9809zm24.79-1.6525c0-1.1789 2.3559-2.271 6.1159-2.8352 6.3652-0.95509 8.7825-4.7527 3.0252-4.7527-1.813 0-3.8107-1.4034-4.8323-3.3948-1.9571-3.8148-2.8892-4.1123-5.5319-1.7653-1.427 1.2674-1.8348 1.0648-1.8348-0.91152 0-3.0391-4.2362-7.5075-7.1173-7.5075-1.131 0-2.0565-0.81433-2.0565-1.8096 0-2.1982-11.2-10.412-14.198-10.412-2.7924 0-10.266 5.7156-10.266 7.8512 0 1.497 1.9728 2.2265 4.9357 1.8249 0.61228-0.08298 2.1069 1.5251 3.3213 3.5734 1.2144 2.0484 5.6833 6.1436 9.9309 9.1004s8.0637 6.1649 8.4802 7.129c0.41657 0.96413 1.8111 1.753 3.0988 1.753 1.2878 0 2.3414 0.91659 2.3414 2.0369 0 1.1203 1.0321 2.0369 2.2935 2.0369s2.2934-0.86289 2.2934-1.9175zm0.12072-5.6642c0.07336-1.5819 0.43566-1.9037 0.92376-0.82041 0.44167 0.98025 0.38734 2.1514-0.12072 2.6027-0.50806 0.45122-0.86943-0.3508-0.80304-1.7823zm-8.8962-6.9614c-1.0424-1.975-1.6141-3.8406-1.2706-4.1457 0.91943-0.81656 4.211 5.0482 3.6472 6.4984-0.26477 0.68104-1.3342-0.37767-2.3766-2.3527zm-14.923-5.8257c0.51972-0.74685 1.2484-1.3579 1.6192-1.3579s0.67424 0.61106 0.67424 1.3579c0 0.74686-0.72864 1.3579-1.6192 1.3579s-1.194-0.61106-0.67425-1.3579zm-9.9383 12.948c0-1.094-1.5481-2.7215-3.4402-3.6166-1.8921-0.89512-4.2783-2.597-5.3028-3.782-1.6564-1.9161-1.868-1.8596-1.9112 0.51028-0.026742 1.4656 1.8435 4.0407 4.156 5.7223 4.9528 3.6015 6.4981 3.8788 6.4981 1.1661zm47.398-16.343c0-1.1203 1.408-3.4118 3.1289-5.0922s4.129-4.0232 5.3514-5.2061c2.7878-2.6979 2.8673-5.3177 0.16125-5.3177-1.1337 0-3.3041 2.4478-4.8231 5.4395s-3.6876 6.1218-4.8191 6.9558c-2.401 1.7697-2.7514 5.2576-0.52831 5.2576 0.84093 0 1.529-0.91659 1.529-2.0369zm-52.083-12.817c1.8269-1.0267 1.857-1.5954 0.17938-3.3907-1.5375-1.6453-2.5118-1.7915-4.1063-0.61618-4.6624 3.4366-1.2514 6.9171 3.927 4.0069zm-28.507-10.462l-4.906-3.4618 3.1749-3.8138c1.7462-2.0976 2.7092-4.483 2.1401-5.3008-2.0875-2.9998-6.9296-1.3959-10.713 3.5484-3.4045 4.4496-3.6089 5.3579-1.7567 7.808 1.3651 1.8058 3.7556 2.768 6.8555 2.7594 2.6177-0.00721 4.7595 0.45109 4.7595 1.0184 0 0.56736 1.2041 1.0029 2.6757 0.9678 1.9992-0.04764 1.4354-0.93897-2.2303-3.5256zm17.031-0.33053c0.46085-0.66223-0.18659-1.9592-1.4387-2.8821-1.2521-0.92292-2.2766-1.3477-2.2766-0.94387 0 0.40378-0.41764 1.7007-0.92807 2.8821-0.99392 2.3003 3.1179 3.1362 4.6434 0.94389zm-9.0667-6.9434c0-1.0998-1.2041-2.2056-2.6757-2.4573-1.8773-0.32109-2.6757 0.4121-2.6757 2.4573s0.79835 2.7784 2.6757 2.4573c1.4716-0.2517 2.6757-1.3575 2.6757-2.4573z"/>
 </g>
</svg>
